<svg xmlns="http://www.w3.org/2000/svg" xmlns:xlink="http://www.w3.org/1999/xlink" width="974.87" height="492.733" viewBox="0 0 974.87 492.733">
  <defs>
    <linearGradient id="linear-gradient" x1="0.5" y1="1" x2="0.5" gradientUnits="objectBoundingBox">
      <stop offset="0" stop-color="gray" stop-opacity="0.251"/>
      <stop offset="0.54" stop-color="gray" stop-opacity="0.122"/>
      <stop offset="1" stop-color="gray" stop-opacity="0.102"/>
    </linearGradient>
    <filter id="_Path_" x="747.54" y="161.321" width="227.33" height="226.231" filterUnits="userSpaceOnUse">
      <feOffset dy="3" input="SourceAlpha"/>
      <feGaussianBlur stdDeviation="3" result="blur"/>
      <feFlood flood-opacity="0.161"/>
      <feComposite operator="in" in2="blur"/>
      <feComposite in="SourceGraphic"/>
    </filter>
    <linearGradient id="linear-gradient-2" x1="0.5" y1="1" x2="0.5" y2="0" xlink:href="#linear-gradient"/>
    <linearGradient id="linear-gradient-3" x1="0.5" y1="1" x2="0.5" y2="0" xlink:href="#linear-gradient"/>
    <filter id="_Path_2" x="665.649" y="165.263" width="216.241" height="226.65" filterUnits="userSpaceOnUse">
      <feOffset dy="3" input="SourceAlpha"/>
      <feGaussianBlur stdDeviation="3" result="blur-2"/>
      <feFlood flood-opacity="0.161"/>
      <feComposite operator="in" in2="blur-2"/>
      <feComposite in="SourceGraphic"/>
    </filter>
    <linearGradient id="linear-gradient-5" x1="0.5" y1="1" x2="0.5" y2="0" xlink:href="#linear-gradient"/>
    <filter id="_Path_3" x="648.49" y="272.002" width="160.7" height="159.871" filterUnits="userSpaceOnUse">
      <feOffset dy="3" input="SourceAlpha"/>
      <feGaussianBlur stdDeviation="3" result="blur-3"/>
      <feFlood flood-opacity="0.161"/>
      <feComposite operator="in" in2="blur-3"/>
      <feComposite in="SourceGraphic"/>
    </filter>
    <linearGradient id="linear-gradient-6" x1="0.501" y1="1" x2="0.501" y2="0" xlink:href="#linear-gradient"/>
    <linearGradient id="linear-gradient-7" x1="0.5" y1="1" x2="0.5" y2="0" xlink:href="#linear-gradient"/>
    <filter id="_Path_4" x="619.809" y="277.783" width="151.072" height="158" filterUnits="userSpaceOnUse">
      <feOffset dy="3" input="SourceAlpha"/>
      <feGaussianBlur stdDeviation="3" result="blur-4"/>
      <feFlood flood-opacity="0.161"/>
      <feComposite operator="in" in2="blur-4"/>
      <feComposite in="SourceGraphic"/>
    </filter>
    <linearGradient id="linear-gradient-12" x1="0.5" y1="1" x2="0.5" y2="0" xlink:href="#linear-gradient"/>
    <linearGradient id="linear-gradient-13" x1="0.5" y1="1" x2="0.5" y2="0" xlink:href="#linear-gradient"/>
    <filter id="_Path_5" x="49" y="314" width="136.93" height="136.272" filterUnits="userSpaceOnUse">
      <feOffset dy="3" input="SourceAlpha"/>
      <feGaussianBlur stdDeviation="3" result="blur-5"/>
      <feFlood flood-opacity="0.161"/>
      <feComposite operator="in" in2="blur-5"/>
      <feComposite in="SourceGraphic"/>
    </filter>
    <filter id="_Path_6" x="0" y="314" width="136.93" height="136.272" filterUnits="userSpaceOnUse">
      <feOffset dy="3" input="SourceAlpha"/>
      <feGaussianBlur stdDeviation="3" result="blur-6"/>
      <feFlood flood-opacity="0.161"/>
      <feComposite operator="in" in2="blur-6"/>
      <feComposite in="SourceGraphic"/>
    </filter>
    <linearGradient id="linear-gradient-17" x1="0.5" y1="1" x2="0.5" y2="0" xlink:href="#linear-gradient"/>
    <filter id="_Path_7" x="17.089" y="315.821" width="128.922" height="134.742" filterUnits="userSpaceOnUse">
      <feOffset dy="3" input="SourceAlpha"/>
      <feGaussianBlur stdDeviation="3" result="blur-7"/>
      <feFlood flood-opacity="0.161"/>
      <feComposite operator="in" in2="blur-7"/>
      <feComposite in="SourceGraphic"/>
    </filter>
    <linearGradient id="linear-gradient-18" x1="0.501" y1="1" x2="0.501" y2="0" xlink:href="#linear-gradient"/>
    <linearGradient id="linear-gradient-19" x1="0.5" y1="1" x2="0.5" gradientUnits="objectBoundingBox">
      <stop offset="0" stop-color="#b3b3b3" stop-opacity="0.251"/>
      <stop offset="0.54" stop-color="#b3b3b3" stop-opacity="0.102"/>
      <stop offset="1" stop-color="#b3b3b3" stop-opacity="0.051"/>
    </linearGradient>
    <linearGradient id="linear-gradient-20" x1="0.5" y1="1.001" x2="0.5" gradientUnits="objectBoundingBox">
      <stop offset="0" stop-opacity="0.122"/>
      <stop offset="0.55" stop-opacity="0.09"/>
      <stop offset="1" stop-opacity="0.02"/>
    </linearGradient>
    <linearGradient id="linear-gradient-21" x1="0.5" y1="0.999" x2="0.5" y2="0" xlink:href="#linear-gradient-20"/>
    <filter id="Trazado_33" x="459.57" y="0" width="407.04" height="415.303" filterUnits="userSpaceOnUse">
      <feOffset dy="3" input="SourceAlpha"/>
      <feGaussianBlur stdDeviation="3" result="blur-8"/>
      <feFlood flood-opacity="0.161"/>
      <feComposite operator="in" in2="blur-8"/>
      <feComposite in="SourceGraphic"/>
    </filter>
  </defs>
  <g id="house-searching-illustration" transform="translate(6.33 6.013)">
    <circle id="Elipse_1" data-name="Elipse 1" cx="182" cy="182" r="182" transform="translate(33.7 52.54)" fill="none" stroke="#ff9800" stroke-miterlimit="10" stroke-width="4" stroke-dasharray="12" opacity="0.3"/>
    <circle id="Elipse_2" data-name="Elipse 2" cx="182" cy="182" r="182" transform="translate(513.7 16.54)" fill="none" stroke="#ff9800" stroke-miterlimit="10" stroke-width="4" stroke-dasharray="12" opacity="0.3"/>
    <g id="_Group_" data-name="&lt;Group&gt;">
      <path id="Trazado_13" data-name="Trazado 13" d="M912.36,518.33a45,45,0,0,1-12.22-30.79,45.71,45.71,0,0,1,22.42-39.07,26.531,26.531,0,0,1-4.68-15c0-15.09,12.66-27.32,28.28-27.32a28.15,28.15,0,0,1,27.13,19.67,42.43,42.43,0,0,1,36.08-19.67c23.27,0,42.14,18.23,42.14,40.71a39.4,39.4,0,0,1-2.58,14.05c.85-.06,1.71-.13,2.58-.13,18.68,0,33.82,14.63,33.82,32.68a31.9,31.9,0,0,1-.17,3.3c14.94,6.22,25.4,20.57,25.4,37.28,0,22.41-18.8,40.58-42,40.58a43.645,43.645,0,0,1-7.27-.62c.12,1.35.2,2.72.2,4.1,0,25.15-21.1,45.54-47.13,45.54a48,48,0,0,1-26.84-8.11,35.78,35.78,0,0,1-22.79,8.11c-19.45,0-35.21-15.23-35.21-34,0-.81.07-1.61.13-2.41h-.13c-20.82,0-37.7-16.31-37.7-36.43A36.3,36.3,0,0,1,912.36,518.33Z" transform="translate(-146.3 -249.46)" fill="url(#linear-gradient)"/>
    </g>
    <g transform="matrix(1, 0, 0, 1, -6.33, -6.01)" filter="url(#_Path_)">
      <path id="_Path_8" data-name="&lt;Path&gt;" d="M916.17,518.18a43.1,43.1,0,0,1-11.69-29.47,43.75,43.75,0,0,1,21.46-37.4,25.39,25.39,0,0,1-4.48-14.39c0-14.44,12.12-26.15,27.07-26.15a27,27,0,0,1,26,18.82A40.62,40.62,0,0,1,1009,410.78c22.28,0,40.33,17.45,40.33,39a37.718,37.718,0,0,1-2.47,13.45c.82-.06,1.64-.12,2.47-.12,17.88,0,32.37,14,32.37,31.28a30.6,30.6,0,0,1-.17,3.16c14.3,6,24.31,19.69,24.31,35.68,0,21.45-18,38.84-40.2,38.84a41.79,41.79,0,0,1-7-.591c.123,1.291.193,2.6.193,3.921,0,24.07-20.2,43.58-45.11,43.58a46,46,0,0,1-25.69-7.76A34.25,34.25,0,0,1,966.3,619c-18.61,0-33.7-14.58-33.7-32.56,0-.78.06-1.54.12-2.31h-.12c-19.93,0-36.09-15.61-36.09-34.87a34.75,34.75,0,0,1,19.66-31.08Z" transform="translate(-139.97 -243.45)" fill="#009688"/>
    </g>
    <line id="_Path_9" data-name="&lt;Path&gt;" y2="242.24" transform="translate(846.33 223.13)" fill="#795548"/>
    <rect id="Rectángulo_7" data-name="Rectángulo 7" width="13.19" height="242.23" transform="translate(839.51 223.13)" fill="url(#linear-gradient-2)"/>
    <rect id="Rectángulo_8" data-name="Rectángulo 8" width="7.3" height="242.23" transform="translate(842.68 223.13)" fill="#795548"/>
    <line id="_Path_10" data-name="&lt;Path&gt;" x1="43.26" y1="44.12" transform="translate(803.81 251.56)" fill="#795548"/>
    <rect id="Rectángulo_9" data-name="Rectángulo 9" width="7.3" height="61.79" transform="matrix(0.714, -0.7, 0.7, 0.714, 801.215, 254.116)" fill="#795548"/>
    <line id="_Path_11" data-name="&lt;Path&gt;" y1="31.46" x2="44.84" transform="translate(847.07 302.14)" fill="#795548"/>
    <rect id="Rectángulo_10" data-name="Rectángulo 10" width="54.78" height="7.3" transform="translate(844.97 330.594) rotate(-35.06)" fill="#795548"/>
    <g id="_Group_2" data-name="&lt;Group&gt;">
      <path id="Trazado_14" data-name="Trazado 14" d="M999.45,522.58a47.74,47.74,0,0,0-9.85-71.4,28.23,28.23,0,0,0,4.52-15.37c0-15.42-12.22-27.92-27.3-27.92a27.39,27.39,0,0,0-26.2,20.1,40.49,40.49,0,0,0-34.83-20.1c-22.47,0-40.69,18.63-40.69,41.61a42.367,42.367,0,0,0,2.49,14.36c-.82-.06-1.65-.13-2.49-.13-18,0-32.66,15-32.66,33.4,0,1.14.06,2.26.17,3.37a41.51,41.51,0,0,0-24.53,38.1c0,22.91,18.16,41.48,40.55,41.48a39.871,39.871,0,0,0,7-.63c-.12,1.38-.19,2.78-.19,4.19,0,25.7,20.37,46.54,45.51,46.54a44.589,44.589,0,0,0,25.91-8.29,33.4,33.4,0,0,0,22,8.29c18.78,0,34-15.57,34-34.77,0-.83-.07-1.65-.12-2.47h.12c20.11,0,36.4-16.67,36.4-37.23a37.32,37.32,0,0,0-19.81-33.13Z" transform="translate(-146.3 -249.46)" fill="url(#linear-gradient-3)"/>
    </g>
    <g transform="matrix(1, 0, 0, 1, -6.33, -6.01)" filter="url(#_Path_2)">
      <path id="_Path_12" data-name="&lt;Path&gt;" d="M994.19,522.36a44.81,44.81,0,0,0-9.25-67,26.5,26.5,0,0,0,4.24-14.43c0-14.48-11.47-26.21-25.63-26.21A25.71,25.71,0,0,0,939,433.58a38,38,0,0,0-32.7-18.87c-21.09,0-38.19,17.49-38.19,39.06a39.771,39.771,0,0,0,2.34,13.48c-.77-.06-1.55-.12-2.34-.12-16.93,0-30.65,14-30.65,31.35a29.986,29.986,0,0,0,.16,3.16,39,39,0,0,0-23,35.77c0,21.5,17,38.93,38.07,38.93a37.426,37.426,0,0,0,6.59-.59c-.11,1.3-.18,2.61-.18,3.93,0,24.13,19.12,43.68,42.71,43.68a41.85,41.85,0,0,0,24.32-7.78,31.35,31.35,0,0,0,20.65,7.78c17.62,0,31.91-14.61,31.91-32.64,0-.78-.06-1.55-.11-2.32h.11c18.87,0,34.17-15.65,34.17-34.95A35,35,0,0,0,994.19,522.36Z" transform="translate(-139.97 -243.45)" fill="#00897b"/>
    </g>
    <rect id="Rectángulo_11" data-name="Rectángulo 11" width="9.92" height="246.78" transform="translate(770.59 223.04)" fill="url(#linear-gradient-3)"/>
    <rect id="Rectángulo_12" data-name="Rectángulo 12" width="4.99" height="243.31" transform="translate(773.41 226.51)" fill="#795548"/>
    <rect id="Rectángulo_13" data-name="Rectángulo 13" width="60.28" height="4.99" transform="translate(772.939 298.163) rotate(-47.2)" fill="#795548"/>
    <rect id="Rectángulo_14" data-name="Rectángulo 14" width="4.99" height="52.89" transform="matrix(0.596, -0.803, 0.803, 0.596, 730.845, 308.409)" fill="#795548"/>
    <g id="_Group_3" data-name="&lt;Group&gt;">
      <path id="Trazado_15" data-name="Trazado 15" d="M808.31,594.74a30.69,30.69,0,0,1-8.32-21,31.15,31.15,0,0,1,15.28-26.62,18.08,18.08,0,0,1-3.19-10.25c0-10.28,8.63-18.62,19.27-18.62a19.19,19.19,0,0,1,18.49,13.4,28.92,28.92,0,0,1,24.59-13.4c15.86,0,28.72,12.42,28.72,27.74a26.851,26.851,0,0,1-1.76,9.58c.58,0,1.16-.09,1.76-.09,12.73,0,23,10,23,22.27a21.764,21.764,0,0,1-.12,2.25,27.65,27.65,0,0,1,17.31,25.41c0,15.27-12.81,27.65-28.62,27.65a29.741,29.741,0,0,1-5-.42c.09.92.14,1.85.14,2.79,0,17.14-14.38,31-32.12,31A32.74,32.74,0,0,1,859.53,661,24.38,24.38,0,0,1,844,666.48c-13.25,0-24-10.38-24-23.18a9.9,9.9,0,0,1,.09-1.64H820c-14.19,0-25.69-11.11-25.69-24.82a24.74,24.74,0,0,1,14-22.1Z" transform="translate(-146.3 -249.46)" fill="url(#linear-gradient-5)"/>
    </g>
    <g transform="matrix(1, 0, 0, 1, -6.33, -6.01)" filter="url(#_Path_3)">
      <path id="_Path_13" data-name="&lt;Path&gt;" d="M810.9,594.64a29.37,29.37,0,0,1-8-20.08,29.81,29.81,0,0,1,14.63-25.48,17.3,17.3,0,0,1-3.05-9.81c0-9.84,8.26-17.82,18.44-17.82a18.36,18.36,0,0,1,17.7,12.83,27.68,27.68,0,0,1,23.53-12.83c15.18,0,27.49,11.89,27.49,26.56a25.7,25.7,0,0,1-1.68,9.17c.56,0,1.11-.08,1.68-.08,12.18,0,22.06,9.54,22.06,21.31a20.819,20.819,0,0,1-.11,2.15,26.47,26.47,0,0,1,16.57,24.32c0,14.62-12.27,26.47-27.4,26.47a28.469,28.469,0,0,1-4.74-.4c.08.88.13,1.77.13,2.67,0,16.4-13.76,29.7-30.74,29.7a31.34,31.34,0,0,1-17.5-5.29,23.34,23.34,0,0,1-14.86,5.29c-12.68,0-23-9.93-23-22.19a10.258,10.258,0,0,1,.08-1.57h-.08c-13.58,0-24.59-10.64-24.59-23.76a23.68,23.68,0,0,1,13.44-21.16Z" transform="translate(-139.97 -243.45)" fill="#009688"/>
    </g>
    <line id="_Path_14" data-name="&lt;Path&gt;" y2="165.07" transform="translate(716.71 314.11)" fill="#795548"/>
    <rect id="Rectángulo_15" data-name="Rectángulo 15" width="8.99" height="165.07" transform="translate(712.06 314.11)" fill="url(#linear-gradient-6)"/>
    <rect id="Rectángulo_16" data-name="Rectángulo 16" width="4.97" height="165.07" transform="translate(714.22 314.11)" fill="#795548"/>
    <line id="_Path_15" data-name="&lt;Path&gt;" x1="29.47" y1="30.07" transform="translate(687.74 333.48)" fill="#795548"/>
    <rect id="Rectángulo_17" data-name="Rectángulo 17" width="4.97" height="42.1" transform="matrix(0.714, -0.7, 0.7, 0.714, 685.961, 335.217)" fill="#795548"/>
    <line id="_Path_16" data-name="&lt;Path&gt;" y1="21.44" x2="30.56" transform="translate(717.21 367.95)" fill="#795548"/>
    <rect id="Rectángulo_18" data-name="Rectángulo 18" width="37.33" height="4.97" transform="translate(715.786 387.333) rotate(-35.06)" fill="#795548"/>
    <g id="_Group_4" data-name="&lt;Group&gt;">
      <path id="Trazado_16" data-name="Trazado 16" d="M892.88,599.64a32,32,0,0,0-6.61-47.92,19,19,0,0,0,3-10.32,18.28,18.28,0,0,0-35.91-5.25A27.18,27.18,0,0,0,830,522.66c-15.08,0-27.31,12.5-27.31,27.93a28.441,28.441,0,0,0,1.67,9.64c-.55,0-1.11-.09-1.67-.09a22.17,22.17,0,0,0-21.92,22.42,15.427,15.427,0,0,0,.11,2.26,27.86,27.86,0,0,0-16.46,25.58c0,15.37,12.19,27.84,27.22,27.84a26.769,26.769,0,0,0,4.71-.42c-.08.93-.13,1.86-.13,2.81,0,17.25,13.68,31.24,30.54,31.24a29.929,29.929,0,0,0,17.39-5.56,22.42,22.42,0,0,0,14.77,5.56,23.08,23.08,0,0,0,22.82-23.34,11.439,11.439,0,0,0-.08-1.66h.08c13.5,0,24.44-11.19,24.44-25A25.05,25.05,0,0,0,892.88,599.64Z" transform="translate(-146.3 -249.46)" fill="url(#linear-gradient-7)"/>
    </g>
    <g transform="matrix(1, 0, 0, 1, -6.33, -6.01)" filter="url(#_Path_4)">
      <path id="_Path_17" data-name="&lt;Path&gt;" d="M889.35,599.5a30.08,30.08,0,0,0-6.21-45,17.79,17.79,0,0,0,2.85-9.68,17.16,17.16,0,0,0-33.71-4.93,25.51,25.51,0,0,0-21.95-12.66c-14.16,0-25.63,11.74-25.63,26.22a26.692,26.692,0,0,0,1.57,9.05c-.52,0-1-.08-1.57-.08a20.81,20.81,0,0,0-20.57,21,14.861,14.861,0,0,0,.1,2.12,26.15,26.15,0,0,0-15.45,24c0,14.43,11.44,26.13,25.55,26.13a25.12,25.12,0,0,0,4.42-.4q-.12,1.305-.12,2.64c0,16.19,12.84,29.32,28.67,29.32a28.091,28.091,0,0,0,16.33-5.22,21,21,0,0,0,13.86,5.22,21.67,21.67,0,0,0,21.42-21.9,10.259,10.259,0,0,0-.08-1.55h.08a23.2,23.2,0,0,0,22.94-23.46,23.51,23.51,0,0,0-12.5-20.82Z" transform="translate(-139.97 -243.45)" fill="#00897b"/>
    </g>
    <rect id="Rectángulo_19" data-name="Rectángulo 19" width="6.66" height="165.64" transform="translate(691.17 316.57)" fill="url(#linear-gradient-3)"/>
    <rect id="Rectángulo_20" data-name="Rectángulo 20" width="3.35" height="163.31" transform="translate(693.06 318.9)" fill="#795548"/>
    <rect id="Rectángulo_21" data-name="Rectángulo 21" width="40.46" height="3.35" transform="translate(692.737 366.981) rotate(-47.2)" fill="#795548"/>
    <rect id="Rectángulo_22" data-name="Rectángulo 22" width="3.35" height="35.5" transform="matrix(0.596, -0.803, 0.803, 0.596, 664.482, 373.869)" fill="#795548"/>
    <rect id="Rectángulo_23" data-name="Rectángulo 23" width="282" height="251" transform="translate(405.26 235.33)" fill="url(#linear-gradient-3)"/>
    <rect id="Rectángulo_24" data-name="Rectángulo 24" width="460" height="243" transform="translate(220.26 235.33)" fill="#fff"/>
    <path id="Trazado_17" data-name="Trazado 17" d="M848.57,508.79h-452v-118h435.5a16.5,16.5,0,0,1,16.5,16.5Z" transform="translate(-146.3 -249.46)" fill="url(#linear-gradient-3)"/>
    <path id="Trazado_18" data-name="Trazado 18" d="M250.26,146H681.88a16.5,16.5,0,0,1,16.5,16.5v93.79H250.26Z" fill="#3fc1c9"/>
    <path id="Trazado_19" data-name="Trazado 19" d="M250.26,146H681.88a16.5,16.5,0,0,1,16.5,16.5v93.79H250.26Z" fill="#fff" opacity="0.7"/>
    <path id="Trazado_20" data-name="Trazado 20" d="M249.26,13.32l-156,109.86V486.32h312V123.18Z" fill="url(#linear-gradient-3)"/>
    <path id="Trazado_21" data-name="Trazado 21" d="M398.26,121.33l-148-108.01-148,108.01v90.99h296Z" fill="#3fc1c9"/>
    <path id="Trazado_22" data-name="Trazado 22" d="M398.26,121.33l-148-108.01-148,108.01v90.99h296Z" fill="#fff" opacity="0.5"/>
    <rect id="Rectángulo_25" data-name="Rectángulo 25" width="296" height="266" transform="translate(102.26 212.33)" fill="#fff"/>
    <path id="Trazado_23" data-name="Trazado 23" d="M417.26,175.32l-167-119.25-169,119.25-11-41.94,180-131.01,180,131.01Z" fill="url(#linear-gradient-12)"/>
    <path id="Trazado_24" data-name="Trazado 24" d="M415.73,169.18,250.26,48.75,84.8,169.18l-7.07-37.71L250.26,5.91,422.8,131.47Z" fill="#364f6b"/>
    <path id="Trazado_25" data-name="Trazado 25" d="M415.73,169.18,250.26,48.75,84.8,169.18l-7.07-37.71L250.26,5.91,422.8,131.47Z" opacity="0.2"/>
    <rect id="Rectángulo_26" data-name="Rectángulo 26" width="168" height="208" transform="translate(166.26 270.33)" fill="#f2f2f2"/>
    <rect id="Rectángulo_27" data-name="Rectángulo 27" width="168" height="36" transform="translate(166.26 270.33)" fill="#364f6b"/>
    <rect id="Rectángulo_28" data-name="Rectángulo 28" width="168" height="36" transform="translate(166.26 442.33)" fill="#364f6b"/>
    <path id="Trazado_26" data-name="Trazado 26" d="M677.9,653a1.5,1.5,0,1,0-1.5-1.5A1.5,1.5,0,0,0,677.9,653Z" transform="translate(-146.3 -249.46)" fill="lime"/>
    <rect id="Rectángulo_29" data-name="Rectángulo 29" width="82" height="152" transform="translate(490.26 326.33)" fill="#f2f2f2"/>
    <rect id="Rectángulo_30" data-name="Rectángulo 30" width="77" height="56" transform="translate(593.26 294.33)" fill="#f2f2f2"/>
    <rect id="Rectángulo_31" data-name="Rectángulo 31" width="77" height="25" transform="translate(593.26 294.33)" fill="#3fc1c9" opacity="0.2"/>
    <g id="_Group_5" data-name="&lt;Group&gt;">
      <path id="Trazado_27" data-name="Trazado 27" d="M207,624.55a25.58,25.58,0,0,1-7-17.49,26,26,0,0,1,12.74-22.19,15.07,15.07,0,0,1-2.66-8.54,15.8,15.8,0,0,1,16.06-15.52A16,16,0,0,1,241.58,572a24.11,24.11,0,0,1,20.5-11.17c13.22,0,23.94,10.36,23.94,23.13a22.389,22.389,0,0,1-1.47,8c.49,0,1-.07,1.47-.07,10.61,0,19.21,8.31,19.21,18.56a18.139,18.139,0,0,1-.1,1.87,23.05,23.05,0,0,1,14.43,21.18c0,12.73-10.68,23.05-23.86,23.05a24.8,24.8,0,0,1-4.13-.35c.07.77.11,1.54.11,2.33,0,14.29-12,25.87-26.77,25.87a27.29,27.29,0,0,1-15.25-4.61,20.33,20.33,0,0,1-12.95,4.61c-11,0-20-8.65-20-19.33a8.92,8.92,0,0,1,.07-1.37h-.07c-11.83,0-21.42-9.27-21.42-20.69A20.62,20.62,0,0,1,207,624.55Z" transform="translate(-146.3 -249.46)" fill="url(#linear-gradient-13)"/>
    </g>
    <g transform="matrix(1, 0, 0, 1, -6.33, -6.01)" filter="url(#_Path_5)">
      <path id="_Path_18" data-name="&lt;Path&gt;" d="M209.13,624.47a24.49,24.49,0,0,1-6.64-16.74,24.85,24.85,0,0,1,12.19-21.24,14.42,14.42,0,0,1-2.54-8.18,15.12,15.12,0,0,1,15.38-14.86,15.31,15.31,0,0,1,14.75,10.69,23.07,23.07,0,0,1,19.62-10.69c12.65,0,22.91,9.91,22.91,22.14a21.43,21.43,0,0,1-1.4,7.64c.46,0,.93-.07,1.4-.07,10.16,0,18.39,8,18.39,17.77a17.366,17.366,0,0,1-.09,1.79A22.07,22.07,0,0,1,316.9,633c0,12.19-10.22,22.07-22.84,22.07a23.724,23.724,0,0,1-4-.34c.067.729.107,1.479.107,2.229,0,13.67-11.47,24.76-25.63,24.76A26.121,26.121,0,0,1,250,677.3a19.45,19.45,0,0,1-12.389,4.411c-10.57,0-19.14-8.28-19.14-18.5a8.157,8.157,0,0,1,.07-1.31h-.07c-11.32,0-20.5-8.87-20.5-19.81A19.74,19.74,0,0,1,209.13,624.47Z" transform="translate(-139.97 -243.45)" fill="#009688"/>
    </g>
    <line id="_Path_19" data-name="&lt;Path&gt;" y2="137.61" transform="translate(106.27 349.11)" fill="#795548"/>
    <rect id="Rectángulo_32" data-name="Rectángulo 32" width="7.5" height="137.61" transform="translate(102.39 349.11)" fill="url(#linear-gradient-3)"/>
    <rect id="Rectángulo_33" data-name="Rectángulo 33" width="4.14" height="137.61" transform="translate(104.19 349.11)" fill="#795548"/>
    <line id="_Path_20" data-name="&lt;Path&gt;" x1="24.58" y1="25.07" transform="translate(82.11 365.25)" fill="#795548"/>
    <rect id="Rectángulo_34" data-name="Rectángulo 34" width="4.14" height="35.1" transform="matrix(0.714, -0.7, 0.7, 0.714, 80.632, 366.702)" fill="#795548"/>
    <line id="_Path_21" data-name="&lt;Path&gt;" y1="17.87" x2="25.47" transform="translate(106.69 393.99)" fill="#795548"/>
    <rect id="Rectángulo_35" data-name="Rectángulo 35" width="31.12" height="4.14" transform="translate(105.496 410.152) rotate(-35.06)" fill="#795548"/>
    <g id="_Group_6" data-name="&lt;Group&gt;">
      <path id="Trazado_28" data-name="Trazado 28" d="M158,624.55a25.58,25.58,0,0,1-7-17.49,26,26,0,0,1,12.74-22.19,15.07,15.07,0,0,1-2.66-8.54,15.8,15.8,0,0,1,16.06-15.52A16,16,0,0,1,192.58,572a24.11,24.11,0,0,1,20.5-11.17c13.22,0,23.94,10.36,23.94,23.13a22.391,22.391,0,0,1-1.47,8c.49,0,1-.07,1.47-.07,10.61,0,19.21,8.31,19.21,18.56a18.149,18.149,0,0,1-.1,1.87,23.05,23.05,0,0,1,14.43,21.18c0,12.73-10.68,23.05-23.86,23.05a24.8,24.8,0,0,1-4.13-.35c.07.77.11,1.54.11,2.33,0,14.29-12,25.87-26.77,25.87a27.291,27.291,0,0,1-15.25-4.61,20.33,20.33,0,0,1-12.95,4.61c-11,0-20-8.65-20-19.33a8.92,8.92,0,0,1,.07-1.37h-.07c-11.83,0-21.42-9.27-21.42-20.69A20.62,20.62,0,0,1,158,624.55Z" transform="translate(-146.3 -249.46)" fill="url(#linear-gradient-13)"/>
    </g>
    <g transform="matrix(1, 0, 0, 1, -6.33, -6.01)" filter="url(#_Path_6)">
      <path id="_Path_22" data-name="&lt;Path&gt;" d="M160.13,624.47a24.49,24.49,0,0,1-6.64-16.74,24.85,24.85,0,0,1,12.19-21.24,14.42,14.42,0,0,1-2.54-8.18,15.12,15.12,0,0,1,15.38-14.86,15.31,15.31,0,0,1,14.75,10.69,23.07,23.07,0,0,1,19.62-10.69c12.65,0,22.91,9.91,22.91,22.14a21.43,21.43,0,0,1-1.4,7.64c.46,0,.93-.07,1.4-.07,10.16,0,18.39,8,18.39,17.77a17.367,17.367,0,0,1-.09,1.79A22.07,22.07,0,0,1,267.9,633c0,12.19-10.22,22.07-22.84,22.07a23.724,23.724,0,0,1-4-.34c.067.729.107,1.479.107,2.229,0,13.67-11.47,24.76-25.63,24.76A26.121,26.121,0,0,1,201,677.3a19.45,19.45,0,0,1-12.389,4.411c-10.57,0-19.14-8.28-19.14-18.5a8.157,8.157,0,0,1,.07-1.31h-.07c-11.32,0-20.5-8.87-20.5-19.81A19.74,19.74,0,0,1,160.13,624.47Z" transform="translate(-139.97 -243.45)" fill="#009688"/>
    </g>
    <line id="_Path_23" data-name="&lt;Path&gt;" y2="137.61" transform="translate(57.27 349.11)" fill="#795548"/>
    <rect id="Rectángulo_36" data-name="Rectángulo 36" width="7.5" height="137.61" transform="translate(53.39 349.11)" fill="url(#linear-gradient-3)"/>
    <rect id="Rectángulo_37" data-name="Rectángulo 37" width="4.14" height="137.61" transform="translate(55.19 349.11)" fill="#795548"/>
    <line id="_Path_24" data-name="&lt;Path&gt;" x1="24.58" y1="25.07" transform="translate(33.11 365.25)" fill="#795548"/>
    <rect id="Rectángulo_38" data-name="Rectángulo 38" width="4.14" height="35.1" transform="matrix(0.714, -0.7, 0.7, 0.714, 31.641, 366.704)" fill="#795548"/>
    <line id="_Path_25" data-name="&lt;Path&gt;" y1="17.87" x2="25.47" transform="translate(57.69 393.99)" fill="#795548"/>
    <rect id="Rectángulo_39" data-name="Rectángulo 39" width="31.12" height="4.14" transform="translate(56.497 410.159) rotate(-35.06)" fill="#795548"/>
    <g id="_Group_7" data-name="&lt;Group&gt;">
      <path id="Trazado_29" data-name="Trazado 29" d="M269.47,625.64a26.71,26.71,0,0,0-5.51-40,15.8,15.8,0,0,0,2.53-8.6,15.24,15.24,0,0,0-29.94-4.38,22.66,22.66,0,0,0-19.49-11.25,23,23,0,0,0-22.77,23.28,23.712,23.712,0,0,0,1.39,8c-.46,0-.92-.071-1.39-.071A18.48,18.48,0,0,0,176,611.4a13.156,13.156,0,0,0,.09,1.89,23.3,23.3,0,0,0,8.97,44.53,22.311,22.311,0,0,0,3.93-.35c-.07.77-.11,1.55-.11,2.34,0,14.38,11.4,26,25.46,26a25,25,0,0,0,14.5-4.64,18.69,18.69,0,0,0,12.31,4.64,19.24,19.24,0,0,0,19-19.45,9.051,9.051,0,0,0-.07-1.38h.07a20.61,20.61,0,0,0,20.37-20.83,20.88,20.88,0,0,0-11.05-18.51Z" transform="translate(-146.3 -249.46)" fill="url(#linear-gradient-17)"/>
    </g>
    <g transform="matrix(1, 0, 0, 1, -6.33, -6.01)" filter="url(#_Path_7)">
      <path id="_Path_26" data-name="&lt;Path&gt;" d="M266.53,625.52a25.07,25.07,0,0,0-5.18-37.5,14.83,14.83,0,0,0,2.37-8.07,14.3,14.3,0,0,0-28.1-4.11,21.27,21.27,0,0,0-18.3-10.56A21.62,21.62,0,0,0,196,587.14a22.25,22.25,0,0,0,1.31,7.54c-.43,0-.87-.07-1.31-.07a17.35,17.35,0,0,0-17.15,17.54,11.538,11.538,0,0,0,.09,1.77,21.8,21.8,0,0,0-12.88,20,21.55,21.55,0,0,0,21.3,21.78,20.937,20.937,0,0,0,3.69-.33c-.06.73-.1,1.46-.1,2.2,0,13.5,10.7,24.44,23.9,24.44a23.42,23.42,0,0,0,13.61-4.35A17.54,17.54,0,0,0,240,682a18.06,18.06,0,0,0,17.86-18.26,9.354,9.354,0,0,0-.06-1.3h.06a19.34,19.34,0,0,0,19.12-19.56A19.6,19.6,0,0,0,266.53,625.52Z" transform="translate(-139.97 -243.45)" fill="#00897b"/>
    </g>
    <rect id="Rectángulo_40" data-name="Rectángulo 40" width="5.55" height="138.09" transform="translate(76.97 348.16)" fill="url(#linear-gradient-18)"/>
    <rect id="Rectángulo_41" data-name="Rectángulo 41" width="2.79" height="136.15" transform="translate(78.55 350.1)" fill="#795548"/>
    <rect id="Rectángulo_42" data-name="Rectángulo 42" width="33.73" height="2.79" transform="translate(78.31 390.189) rotate(-47.2)" fill="#795548"/>
    <rect id="Rectángulo_43" data-name="Rectángulo 43" width="2.79" height="29.6" transform="matrix(0.596, -0.803, 0.803, 0.596, 54.729, 395.922)" fill="#795548"/>
    <path id="Trazado_30" data-name="Trazado 30" d="M859.63,302.24a153,153,0,0,0-219-1.65c-57.91,58.38-58.89,153.43-2.25,213A153,153,0,0,0,834.6,535.28l110.6,115a7.44,7.44,0,0,0,10.53.21L983.28,624a7.44,7.44,0,0,0,.21-10.53l-110.6-115a153,153,0,0,0-13.26-196.23ZM825.18,487.16a109.43,109.43,0,1,1,3-154.73,109.43,109.43,0,0,1-3,154.73Z" transform="translate(-146.3 -249.46)" fill="url(#linear-gradient-19)"/>
    <path id="Trazado_31" data-name="Trazado 31" d="M668.29,377.85c-12.31,0-12.33,19.12,0,19.12S680.61,377.85,668.29,377.85Z" transform="translate(-146.3 -249.46)" fill="url(#linear-gradient-20)"/>
    <path id="Trazado_32" data-name="Trazado 32" d="M754.07,316.59c-33.12-.75-63.27,15.87-79.29,41-5.23,8.18,9.62,15.41,14.82,7.27,13.27-20.77,38.49-34,65.74-33.27,28.58.72,54.59,17.07,68.36,39.76,5.23,8.61,18.91.78,13.72-7.78C820.71,336,788.29,317.36,754.07,316.59Z" transform="translate(-146.3 -249.46)" fill="url(#linear-gradient-21)"/>
    <g transform="matrix(1, 0, 0, 1, -6.33, -6.01)" filter="url(#Trazado_33)">
      <path id="Trazado_33-2" data-name="Trazado 33" d="M871.63,296.42a153,153,0,0,0-219-1.65c-57.91,58.38-58.89,153.43-2.25,213A153,153,0,0,0,846.6,529.46l110.6,115a7.44,7.44,0,0,0,10.53.21l27.56-26.5a7.44,7.44,0,0,0,.21-10.53l-110.6-115A153,153,0,0,0,871.63,296.42ZM837.18,481.34a109.43,109.43,0,1,1,3-154.73,109.43,109.43,0,0,1-3,154.73Z" transform="translate(-139.97 -243.45)" fill="#3fc1c9"/>
    </g>
    <path id="Trazado_34" data-name="Trazado 34" d="M680.29,372c-12.31,0-12.33,19.12,0,19.12S692.61,372,680.29,372Z" transform="translate(-146.3 -249.46)" fill="#3fc1c9"/>
    <path id="Trazado_35" data-name="Trazado 35" d="M766.07,310.77c-33.12-.75-63.27,15.87-79.29,41-5.23,8.18,9.62,15.41,14.82,7.27,13.27-20.77,38.49-34,65.74-33.27,28.58.72,54.59,17.07,68.36,39.76,5.23,8.61,18.91.78,13.72-7.78C832.71,330.2,800.29,311.55,766.07,310.77Z" transform="translate(-146.3 -249.46)" fill="#3fc1c9"/>
  </g>
</svg>
