<svg xmlns="http://www.w3.org/2000/svg" width="179.287" height="40" viewBox="0 0 179.287 40">
  <g id="logo" transform="translate(0 -1)">
    <path id="Trazado_1" data-name="Trazado 1" d="M35.4,43.407a4.433,4.433,0,0,1,0,1.648q-.978,0-2.42-.051H30.2q-1.339-.052-2.163-.051T26.6,45H25.156L15.629,30.945a5.1,5.1,0,0,0-1.545-1.7,4.256,4.256,0,0,0-1.854-.515l-1.339-.155V38.618a24.1,24.1,0,0,0,.1,2.523,2.2,2.2,0,0,0,.515,1.339,3.14,3.14,0,0,0,1.442.618q1.03.155,2.832.309a4.433,4.433,0,0,1,0,1.648q-1.03,0-2.472-.051H10.428q-1.442-.052-2.42-.051-.927,0-2.42.051H2.6q-1.493.051-2.523.051a4.429,4.429,0,0,1,0-1.648q2.472-.206,3.553-.412a1.667,1.667,0,0,0,1.339-1.03,9.891,9.891,0,0,0,.257-2.678v-24a10.587,10.587,0,0,0-.309-3.038,1.762,1.762,0,0,0-1.339-1.236,18.359,18.359,0,0,0-3.5-.463,4.429,4.429,0,0,1,0-1.648q.978,0,2.523.051,1.6,0,3.09.052h4.635l2.935-.1q1.493-.051,2.317-.051a19.968,19.968,0,0,1,6.025.875,9.41,9.41,0,0,1,4.532,2.884,7.663,7.663,0,0,1,1.751,5.3,9.288,9.288,0,0,1-2.008,5.871,11.81,11.81,0,0,1-6.231,3.862V27.8a9.557,9.557,0,0,1,1.751,2.06L26.8,37.691q1.339,1.905,2.214,2.987a9.454,9.454,0,0,0,1.751,1.648,5.5,5.5,0,0,0,1.905.721Q33.756,43.252,35.4,43.407ZM10.892,11.17V26.464q.669.1,1.184.155t.978.052a9.194,9.194,0,0,0,6.334-2.06,7.618,7.618,0,0,0,2.369-6.077,7.375,7.375,0,0,0-2.06-5.613q-2.008-1.957-5.974-1.957-.515,0-1.288.051Q11.716,11.067,10.892,11.17Z" transform="translate(0 -4.621)" fill="#f5f5f5"/>
    <path id="Trazado_2" data-name="Trazado 2" d="M46.822,45.621a10.809,10.809,0,0,1-6.18-1.7A11.037,11.037,0,0,1,36.78,39.39a15.362,15.362,0,0,1-1.287-6.334,16.163,16.163,0,0,1,1.339-6.592,11.95,11.95,0,0,1,4.017-4.892,10.581,10.581,0,0,1,6.386-1.905A9.131,9.131,0,0,1,54.289,22.4a9.613,9.613,0,0,1,2.575,6.952,7.533,7.533,0,0,1-.052.927,3.2,3.2,0,0,1-.051.618l-16.222-.154v.36q0,5.047,2.317,7.931a7.855,7.855,0,0,0,6.489,2.884,12.325,12.325,0,0,0,6.9-2.266,5.331,5.331,0,0,1,.772,1.184A13.43,13.43,0,0,1,46.822,45.621Zm-.206-24a5.08,5.08,0,0,0-3.862,1.8,9.44,9.44,0,0,0-2.06,5.407l10.66-.206a.574.574,0,0,0,.051-.257v-.257a8.179,8.179,0,0,0-1.236-4.635A3.937,3.937,0,0,0,46.616,21.624Z" transform="translate(-4.119 -4.621)" fill="#f5f5f5"/>
    <path id="Trazado_3" data-name="Trazado 3" d="M67.064,45.621a6.769,6.769,0,0,1-4.48-1.545,5.547,5.547,0,0,1-1.8-4.377q0-6.8,13.853-8.549V28.627q.051-1.287.052-2.729a3.24,3.24,0,0,0-1.339-2.781,4.87,4.87,0,0,0-3.141-1.03,5.567,5.567,0,0,0-2.266.412,6.266,6.266,0,0,1-.515,2.42,5.532,5.532,0,0,1-1.39,2.111,3.22,3.22,0,0,1-2.214.824,2.553,2.553,0,0,1-1.8-.618,2.273,2.273,0,0,1-.618-1.6,3.187,3.187,0,0,1,1.133-2.317,9.922,9.922,0,0,1,2.987-1.905,20.237,20.237,0,0,1,3.759-1.287,15.371,15.371,0,0,1,3.5-.464,8.408,8.408,0,0,1,3.5.721,5.8,5.8,0,0,1,2.626,2.06,5.328,5.328,0,0,1,1.03,3.347q0,1.236-.052,3.244-.051,1.957-.1,4.223,0,2.214-.051,4.223t-.052,3.244q0,1.648,1.442,1.648a10.312,10.312,0,0,0,2.832-.618,1.215,1.215,0,0,1,.257.567,4.747,4.747,0,0,1,.155.566A8.116,8.116,0,0,1,81.637,44.9a6.912,6.912,0,0,1-2.832.618,4.053,4.053,0,0,1-4.274-3.4Q70.874,45.621,67.064,45.621Zm-.721-7.055a3.887,3.887,0,0,0,.927,2.781,3.384,3.384,0,0,0,2.42.927,6.086,6.086,0,0,0,2.06-.412q1.184-.412,2.781-1.133l.1-7.725q-4.738.618-6.54,2.008A4.342,4.342,0,0,0,66.343,38.566Z" transform="translate(-7.137 -4.621)" fill="#f5f5f5"/>
    <path id="Trazado_4" data-name="Trazado 4" d="M98.434,40.433q-1.493,0-3.038-.045t-3.45-.045q-1.905,0-3.4.045t-3.038.045a3.241,3.241,0,0,1,0-1.407,17.323,17.323,0,0,0,2.575-.272,1.486,1.486,0,0,0,1.081-.908,6.675,6.675,0,0,0,.257-2.178V12.931a5.324,5.324,0,0,0-.309-2.088,1.632,1.632,0,0,0-1.185-1,10.8,10.8,0,0,0-2.678-.454,2.467,2.467,0,0,1,0-1.225q2.06-.227,4.223-.681A33.906,33.906,0,0,0,93.9,6.123l.875.272q-.051,1-.1,2.269v26.55a10.989,10.989,0,0,0,.206,2.541,1.467,1.467,0,0,0,1.03,1,17.007,17.007,0,0,0,2.523.272A4.826,4.826,0,0,1,98.434,40.433Z" transform="translate(-9.45)" fill="#f5f5f5"/>
    <path id="Trazado_5" data-name="Trazado 5" d="M104.873,45a4.535,4.535,0,0,1,0-1.129q1.659-.177,2.365-.318a1.123,1.123,0,0,0,.882-.706,6.627,6.627,0,0,0,.176-1.8V24.641a8.893,8.893,0,0,0-.176-2.117,1.134,1.134,0,0,0-.918-.812,12.919,12.919,0,0,0-2.329-.353,4.535,4.535,0,0,1,0-1.129q.918,0,1.588.035h1.412q.705,0,1.694.035H117.3q2.435-.035,4.058-.035,1.623-.035,1.906-.035.141,1.306.317,2.682.213,1.376.459,2.929a4.811,4.811,0,0,1-1.164,0,9.339,9.339,0,0,0-.989-1.87,4.934,4.934,0,0,0-1.164-1.235,4.687,4.687,0,0,0-1.624-.741,8.983,8.983,0,0,0-2.294-.247h-4.623v9.635h1.941a11.8,11.8,0,0,0,2.577-.212A2.052,2.052,0,0,0,118,30.147a8.354,8.354,0,0,0,.671-2.541,3.423,3.423,0,0,1,1.2,0q-.036,1.906-.071,2.753v1.835l.071,4.658a3.414,3.414,0,0,1-1.2,0,8.238,8.238,0,0,0-.635-2.682,1.909,1.909,0,0,0-1.271-1.023,9.776,9.776,0,0,0-2.329-.212h-2.259v9.6c.024.471.047.776.071.918h4.835a11.343,11.343,0,0,0,2.823-.282,4.817,4.817,0,0,0,1.8-.917,6.543,6.543,0,0,0,1.165-1.341,16.8,16.8,0,0,0,1.27-2.259,4.252,4.252,0,0,1,1.094,0q-.353,1.976-.6,3.564t-.423,2.753h-7.2q-1.871-.035-3.423-.035h-2.435q-1.659,0-2.718.035H106.6Q105.826,45,104.873,45Z" transform="translate(-12.091 -4.621)" fill="#f5f5f5"/>
    <path id="Trazado_6" data-name="Trazado 6" d="M128.859,39.393a7.531,7.531,0,0,0,1.694,3.564,4,4,0,0,0,3,1.2,4.108,4.108,0,0,0,2.33-.635,2.371,2.371,0,0,0,.952-2.082,2.56,2.56,0,0,0-.529-1.694,3.713,3.713,0,0,0-1.412-1.059q-.882-.459-2.011-.917-1.307-.529-2.471-1.129a6.414,6.414,0,0,1-1.87-1.553,3.98,3.98,0,0,1-.706-2.435,4.3,4.3,0,0,1,.882-2.788,5.648,5.648,0,0,1,2.33-1.694,8.366,8.366,0,0,1,3.07-.565,12.529,12.529,0,0,1,1.623.106q.813.106.883.106c.47.071.906.118,1.3.141h.777a2.222,2.222,0,0,0,.353-.035q0,1.129.035,2.294t.141,2.47c-.235.024-.459.047-.67.071a4.559,4.559,0,0,1-.565-.035,5.7,5.7,0,0,0-1.376-2.859,3.314,3.314,0,0,0-2.506-.918,3.9,3.9,0,0,0-2.329.635,2.081,2.081,0,0,0-.847,1.765,2.128,2.128,0,0,0,.564,1.517,4.952,4.952,0,0,0,1.377.953q.812.388,1.553.67a22.082,22.082,0,0,1,2.611,1.2,5.741,5.741,0,0,1,2.047,1.659A4.309,4.309,0,0,1,139.9,40.1a4.73,4.73,0,0,1-.953,3.035,5.484,5.484,0,0,1-2.365,1.729,8.76,8.76,0,0,1-3.035.529,12.061,12.061,0,0,1-1.835-.141q-.882-.141-.953-.141t-.6-.071q-.493-.071-1.129-.141a9.181,9.181,0,0,0-1.059-.071q0-1.094-.106-2.435-.071-1.341-.176-2.964.389-.035.635-.035A1.99,1.99,0,0,1,128.859,39.393Z" transform="translate(-14.085 -4.621)" fill="#f5f5f5"/>
    <path id="Trazado_7" data-name="Trazado 7" d="M148.969,45.393a5.219,5.219,0,0,1-3.353-.988,3.587,3.587,0,0,1-1.235-2.929q0-3.106.035-6,.07-2.894.106-5.576H141.84a2.151,2.151,0,0,1,0-.953,10.333,10.333,0,0,0,5.258-4.835,4.558,4.558,0,0,1,.565.035,3.043,3.043,0,0,1,.494.035q-.036.918-.071,1.941,0,1.023-.035,2.153h5.364a6.21,6.21,0,0,1,0,1.623h-5.364q-.07,2.47-.106,5.223v5.47q0,2.859,2.965,2.859a4.44,4.44,0,0,0,2.364-.671,2.116,2.116,0,0,1,.388,1.059A7.652,7.652,0,0,1,148.969,45.393Z" transform="translate(-15.611 -4.621)" fill="#f5f5f5"/>
    <path id="Trazado_8" data-name="Trazado 8" d="M159.5,45.393a4.637,4.637,0,0,1-3.07-1.059,3.8,3.8,0,0,1-1.235-3q0-4.658,9.493-5.858V33.746q.034-.882.035-1.87a2.221,2.221,0,0,0-.917-1.906,3.34,3.34,0,0,0-2.153-.706,3.818,3.818,0,0,0-1.553.282,4.3,4.3,0,0,1-.353,1.659,3.787,3.787,0,0,1-.953,1.447,2.2,2.2,0,0,1-1.517.565,1.747,1.747,0,0,1-1.235-.424,1.555,1.555,0,0,1-.424-1.094,2.185,2.185,0,0,1,.776-1.588,6.817,6.817,0,0,1,2.047-1.306,13.9,13.9,0,0,1,2.577-.882,10.536,10.536,0,0,1,2.4-.318,5.761,5.761,0,0,1,2.4.494,3.977,3.977,0,0,1,1.8,1.412,3.649,3.649,0,0,1,.706,2.294q0,.847-.035,2.223-.036,1.341-.071,2.894,0,1.518-.035,2.894t-.036,2.223q0,1.129.989,1.129a7.071,7.071,0,0,0,1.941-.424.829.829,0,0,1,.176.388,3.374,3.374,0,0,1,.106.388,5.564,5.564,0,0,1-1.87,1.376,4.742,4.742,0,0,1-1.941.424,2.778,2.778,0,0,1-2.93-2.329A7.434,7.434,0,0,1,159.5,45.393ZM159,40.558a2.666,2.666,0,0,0,.635,1.906,2.32,2.32,0,0,0,1.659.635,4.178,4.178,0,0,0,1.412-.282q.812-.282,1.905-.776l.071-5.294a9.81,9.81,0,0,0-4.482,1.376A2.975,2.975,0,0,0,159,40.558Z" transform="translate(-20.713 -4.621)" fill="#f5f5f5"/>
    <path id="Trazado_9" data-name="Trazado 9" d="M179.159,45.393a5.221,5.221,0,0,1-3.353-.988,3.59,3.59,0,0,1-1.235-2.929q0-3.106.036-6,.071-2.894.105-5.576H172.03a2.181,2.181,0,0,1,0-.953,10.335,10.335,0,0,0,5.259-4.835,4.543,4.543,0,0,1,.564.035,3.034,3.034,0,0,1,.494.035q-.034.918-.07,1.941,0,1.023-.035,2.153h5.364a6.3,6.3,0,0,1,0,1.623h-5.364q-.07,2.47-.106,5.223v5.47q0,2.859,2.964,2.859a4.446,4.446,0,0,0,2.365-.671,2.126,2.126,0,0,1,.388,1.059A7.655,7.655,0,0,1,179.159,45.393Z" transform="translate(-20.713 -4.621)" fill="#f5f5f5"/>
    <path id="Trazado_10" data-name="Trazado 10" d="M193.012,45.393a7.409,7.409,0,0,1-4.235-1.165,7.563,7.563,0,0,1-2.646-3.106,10.515,10.515,0,0,1-.883-4.341,11.072,11.072,0,0,1,.918-4.517,8.187,8.187,0,0,1,2.753-3.353,7.247,7.247,0,0,1,4.376-1.306,6.259,6.259,0,0,1,4.835,1.87,6.589,6.589,0,0,1,1.764,4.764,5.268,5.268,0,0,1-.035.635,2.238,2.238,0,0,1-.035.424l-11.117-.106v.247a8.445,8.445,0,0,0,1.588,5.435,5.384,5.384,0,0,0,4.447,1.976,8.449,8.449,0,0,0,4.729-1.553,3.674,3.674,0,0,1,.529.812A9.2,9.2,0,0,1,193.012,45.393Zm-.141-16.446a3.481,3.481,0,0,0-2.647,1.235,6.466,6.466,0,0,0-1.411,3.705l7.3-.141a.4.4,0,0,0,.035-.176v-.176a5.6,5.6,0,0,0-.847-3.176A2.7,2.7,0,0,0,192.871,28.947Z" transform="translate(-20.713 -4.621)" fill="#f5f5f5"/>
    <path id="Trazado_11" data-name="Trazado 11" d="M199.641,15.554,185.528,1,179.6,7.131l3.251,3.3,2.675-2.772,7.661,7.9Z" transform="translate(-20.713)" fill="#f5f5f5"/>
    <path id="Trazado_12" data-name="Trazado 12" d="M188.1,15.554,173.988,1,159.876,15.554h6.451l7.661-7.9,7.662,7.9Z" transform="translate(-20.713)" fill="#3fc1c9"/>
  </g>
</svg>
